General
Complete name                    : The.Assassin.Next.Door.2009.avi
Format                           : AVI
File size                        : 1.38 GiB
Duration                         : 1h 49mn
Overall bit rate                 : 1 808 Kbps

Video

Format                           : MPEG-4 Visual
Codec ID/Hint                    : XviD
Duration                         : 1h 49mn
Bit rate                         : 1 476 Kbps
Width                            : 720 pixels
Height                           : 366 pixels
Display aspect ratio             : 2.35:1
Stream size                      : 1.13 GiB (82%)
Writing library                  : XviD 1.1.2 (UTC 2006-11-01)

Audio............................: Rus,Eng

Format                           : AC-3
Duration                         : 1h 49mn
Bit rate                         : 320 Kbps
Channel(s)                       : 6 channels
Channel positions                : Front: L C R, Side: L R, LFE
Sampling rate                    : 48.0 KHz
Stream size                      : 250 MiB (18%)

Sub..............................: Eng
